<svg xmlns="http://www.w3.org/2000/svg" viewBox="0 0 64 64" role="img" aria-labelledby="title">
  <title id="title">Logo UTMify</title>
  <rect width="64" height="64" rx="10" fill="#111522"/>
  <path d="M13 12h14.2c1.4 0 2.5 1.1 2.5 2.5v23.4c0 3.5 2.8 6.3 6.3 6.3h1.4c3.5 0 6.3-2.8 6.3-6.3V12h7.6v26.6c0 8.5-6.9 15.4-15.4 15.4h-1.2c-8.5 0-15.4-6.9-15.4-15.4V19.9H13V12Z" fill="#F4F6FA"/>
  <path d="M43.7 12h10.9v10.9L43.7 12Z" fill="#F4F6FA"/>
  <path d="M44.8 13.1h8.5v8.5L44.8 13.1Z" fill="url(#utmify-accent)"/>
  <defs>
    <linearGradient id="utmify-accent" x1="45" y1="13" x2="54" y2="22" gradientUnits="userSpaceOnUse">
      <stop stop-color="#23E6FF"/>
      <stop offset="0.52" stop-color="#0A84FF"/>
      <stop offset="1" stop-color="#121735"/>
    </linearGradient>
  </defs>
</svg>
